<svg xmlns="http://www.w3.org/2000/svg" width="693" height="690" fill="none">
  <g clip-path="url(#a)">
    <path fill="#000"
      d="m244.213 302.402 153.676-6.874 51.397 6.874a50.816 50.816 0 0 0 12.852 34.301c14.073 15.608 69.421 146.368 69.421 146.368l-334.237 51.243-89.039 47.215V452.936l135.93-150.534Z" />
    <path fill="#000"
      d="M58.12 625.065c18.884-25.233 37.782-47.299 59.813-66.213 9.178-9.193 24.277-6.513 33.802-15.04-2.08-.097-4.062-.166-5.851-.18 0 0 30.503-24.691 36.963-97.139 0 0 59.841-115.665 51.397-133.051 0 0-146.231 4.249-171.923 47.715-22.183 37.495-119.777 272.851-13.864 320.08-9.068-18.844-2.8-43.688 9.663-56.172Z" />
    <path fill="#C89A8A"
      d="M502.083 625.703a609.056 609.056 0 0 1-61.92 20.97 666.465 666.465 0 0 1-13.684 3.749h-.07a671.942 671.942 0 0 1-23.32 5.833c-1.29.291-2.551.611-3.841.888a642.95 642.95 0 0 1-7.085 1.584 596.777 596.777 0 0 1-11.202 2.416c-2.205.472-4.382.916-6.586 1.389a936.842 936.842 0 0 1-28.201 5.291c-9.539 1.708-19.05 3.221-28.423 4.638a1505.696 1505.696 0 0 1-205.308 16.025c-.649 0-1.298.042-1.941.125-23.57 2.778-42.648 1.25-58.038-3.833a16.469 16.469 0 0 1-7.045-4.515 16.51 16.51 0 0 1-3.922-7.399c-3.854-16.831 1.927-35.884 12.104-46.633.436-.44.848-.904 1.234-1.389 18.093-24.107 36.228-45.313 57.136-63.629a16.622 16.622 0 0 1 4.673-2.875c50.564-20.622 60.353-14.956 68.075-18.331a17.592 17.592 0 0 1 10.177-1.388c82.218 15.122 270.695 63.879 302.57 72.212 3.015.787 6.191.71 9.164-.223 24.846-7.776 137.954-42.452-4.547 15.095Z" />
    <path fill="#C59E97"
      d="M657.644 606.984c-.818 24.913-61.004 17.386-141.253 6.693-5.782-.791-11.702-1.61-17.692-2.485a1632.012 1632.012 0 0 1-52.533-8.68c-8.319-1.388-16.638-2.999-25.054-4.638a2266.94 2266.94 0 0 1-34.315-6.805 3.975 3.975 0 0 0-3.965 1.5 3.985 3.985 0 0 1-3.345 1.571 3.984 3.984 0 0 1-3.199-1.848l-1.387-2.097a4.058 4.058 0 0 0-1.747-1.5l-1.969-.875a.918.918 0 0 1-.305 0l-8.318-1.778-3.938-.847a214.684 214.684 0 0 1-5.546-1.236l-.457-.083-3.758-.403a4.24 4.24 0 0 1-1.15-.305l-1.387-.597a4.25 4.25 0 0 0-.721-.236 2929.11 2929.11 0 0 1-37.712-8.624l-10.995-2.611a3593.388 3593.388 0 0 1-15.944-3.874 2106.218 2106.218 0 0 1-15.418-3.847c-55.68-14.095-94.349-25.871-93.933-28.343 6.267-39.703 77.476-46.272 84.45-46.813a3.971 3.971 0 0 1 1.067 0c18.496 3.805 41.595 5.041 67.258 4.555 4.811-.084 9.706-.25 14.697-.5 4.409-.153 8.846-.403 13.352-.667 2.481-.152 5.005-.347 7.514-.5 113.206-7.985 253.031-40.355 269.738-44.285a3.874 3.874 0 0 1 3.078.542c24.444 16.594 28.409 53.034 24.887 159.616Z" />
    <path fill="#000"
      d="M231.069 337.008s-93.421-114.442-9.844-190.112c0 0-23.113-69.435 74.869-143.535 0 0 142.266-23.775 156.741 55.117 0 0 20.894 62.422 8.028 111.706 0 0 7.847 62.742-19.411 96.584 0 0 39.736 38.981 23.57 55.298l50.468 32.662s-281.205 17.706-284.421-17.72Z" />
    <path stroke="#261F27" stroke-miterlimit="10" stroke-width="3"
      d="m285.114 491.958-11.452 5.25 20.825 12.054-20.825 12.095 22.503 12.11-18.482 18.483 21.033 16.831" />
    <path fill="#261F27"
      d="m285.682 508.317-19.522-7.818 2.995 20.844 16.527-13.026ZM286.779 538.66l-18.205-10.526v21.053l18.205-10.527ZM280.968 567.17a2320.285 2320.285 0 0 1-15.417-3.847v-5.068l15.417 8.915ZM304.691 492.847l.859 15.331-18.773-9.498 9.317-6.083M287.68 522.954l18.759 9.499-1.179-21.025-17.58 11.526ZM287.68 550.631l18.759 9.484-1.179-21.024-17.58 11.54ZM307.907 573.655l-10.995-2.61 10.468-6.861.527 9.471Z" />
    <path stroke="#272028" stroke-miterlimit="10" stroke-width="3"
      d="M316.269 530.37s-.596-10.929 9.04-4.277c9.636 6.651-7.238 15.386-7.238 15.386l.305 8.471 43.702-.763v5.888s-28.936 19.011-1.802 19.622" />
    <path stroke="#272028" stroke-miterlimit="10" stroke-width="3"
      d="m362.077 520.954 1.512 12.499s-16.874 5.235-17.179-11.179l-7.237 1.735v50.688h-20.492s-4.825-27.51 12.353-5.916" />
    <path fill="#272028" d="m354.286 546.549-15.128-15.152-15.127 15.152 15.127 15.152 15.128-15.152Z" />
    <path stroke="#272028" stroke-miterlimit="10" stroke-width="3"
      d="M361.564 510.706s.181 10.943-9.192 3.944c-9.372-6.999 7.806-15.109 7.806-15.109v-7.666M339.338 493.042l-.638 15.775-.277 7.43-7.307 1.388c.347-16.4-16.637-11.859-16.637-11.859l.998 12.581" />
    <path fill="#272028" d="m352.691 491.653 1.719 1.861-15.709 14.567-14.058-15.275c4.811-.098 9.705-.25 14.696-.5" />
    <path fill="#261F27" d="m160.137 554.769-65.705 51.923 35.285 33.718 67.591-65.727-37.171-19.914Z" />
    <path fill="#C89A8A"
      d="m150.211 620.565.804-33.884-32.138 2.819 31.334 31.065ZM138.314 572.989l27.453 27.218.929-24.121-28.382-3.097ZM178.424 568.781l-17.733-4.166 17.331 19.539.402-15.373ZM129.317 637.41l.79-33.898-32.138 2.819 31.348 31.079Z" />
    <path fill="#272028"
      d="M86.806 616.344C55.458 640.896 70.17 686.5 70.17 686.5c4.16 4.167 65.33 0 65.33 0 13.99-23.218-48.693-70.156-48.693-70.156Z" />
    <path fill="#C89A8A"
      d="M70.724 679.14c-1.206-4.027 23.722-42.258 23.722-42.258-31.75-4.832-23.722 42.258-23.722 42.258Z" />
    <path fill="#C89A8A"
      d="M73.621 679.14c.97-4.082 41.594-24.732 41.594-24.732-25.04-20.081-41.594 24.732-41.594 24.732Z" />
    <path fill="#C89A8A"
      d="M78.377 678.349c8.596-2.889 46.197-6.055 46.197-6.055-16.402-14.97-39.348 1.014-46.197 6.055Z" />
    <path fill="#C89A8A"
      d="M78.295 684.584c8.956-1.472 46.585 1.389 46.585 1.389-13.892-17.442-39.029-5.263-46.585-1.389Z" />
    <path fill="#272028"
      d="M252.864 560.102 217.8 572.517l-30.53 15.65-26.925 25.76-28.575 32.301 7.639 7.652 25.747-29.885 28.922-27.371 30.155-18.511 40.069-14.04-11.438-3.971Z" />
    <path fill="#272028"
      d="m277.947 566.42-10.649 2.361C152.36 602.929 140.242 688.028 140.242 688.028l53.518-2.527c30.364-81.308 106.093-113.762 106.093-113.762l-21.906-5.319Z" />
    <path stroke="#C89A8A" stroke-miterlimit="10" stroke-width="2"
      d="M173.961 639.368s12.063 31.524-22.502 37.495M178.91 686.098c-7.847-25.913 19.896-33.329 19.896-33.329M156.92 657.838l36.769 15.053M213.17 594.25s4.534 33.453-30.502 31.315M207.235 640.868c-1.705-27.024 26.981-27.857 26.981-27.857M192.318 608.317l32.361 23.08M254.376 576.502c-1.816-6.027 1.983 16.664-27.73 12.123M242.23 604.693c7.238-26.094 24.208-18.526 24.208-18.526M240.484 582.349l13.837 12.567M288.344 566.351c0-4.638-1.969 12.22-22.045 2.958M274.064 583.848c10.413-16.997 20.895-8.193 20.895-8.193M277.363 567.684l7.252 11.707" />
    <path fill="#272028" d="M207.236 683.917s41.83-97.208 98.357-109.22h13.13s-41.844 11.248-105.372 109.22h-6.115Z" />
    <path fill="#272028"
      d="M227.824 682.793c12.714-21.608 61.476-100.653 96.485-105.319l20.09 5.624s-50.967 50.827-73.885 95.501" />
    <path fill="#C89A8A"
      d="m253.794 680.39-2.052-5.166-17.123 6.972M261.613 660.421l-20.187 5.985 25.455 11.262-5.268-17.247ZM272.456 645.937l-22.655 5.555 25.442 11.262-2.787-16.817ZM282.299 630.036l-20.686 6.499 23.986 11.013-3.3-17.512ZM293.156 619.857l-19.494.611 21.158 11.679-1.664-12.29ZM305.814 606.984l-19.619 2.972 19.3 11.845.319-14.817ZM318.057 596.43l-18.26 2.055 18.26 10.721V596.43ZM329.953 585.14l-18.094 1.972 19.272 7.804-1.178-9.776Z" />
    <path fill="#272028"
      d="m293.363 676.766-7.252-5.833 7.252-10.859s9.233 11.956 12.658 12.762c3.425.805-12.658 3.93-12.658 3.93ZM297.273 649.242l25.039-28.774s31.709 47.841 34.995 45.563c3.286-2.277-44.076 7.138-44.076 7.138s-20.34-18.886-15.958-23.927Z" />
    <path fill="#C89A8A"
      d="m350.042 664.184 1.026 2.778c-9.539 1.708-20.076 3.582-29.448 4.999l-5.352-3.472 2.426-4.291h13.407v-6.082l-6.488-1.834-1.29 5.361-14.987.319-.874-8.068h12.936l-.888-4.638-4.242-1.195v3.028l-12.659-.32 2.898-7.221 7.653-.916v-8.777h12.908l-6.46 11.11h14.363l-2.773 7.79 10.233 3.083-3.3 9.457 10.911-1.111Z" />
    <path stroke="#272028" stroke-miterlimit="10" d="m362.506 664.837-33.885-51.826 5.116-8.318" />
    <path fill="#272028"
      d="M430.333 649.936h-.069c-7.737 2.083-15.515 4-23.321 5.833 6.461-8.735 27.993-39.759 21.283-56.853l13.726 3.846s.249 41.842-11.619 47.174ZM354.049 612.219l-6.614-8.846-8.263 9.124 7.431 11.651 7.446-11.929ZM369.522 611.372l-6.628-8.846-8.263 9.124 7.445 11.665 7.446-11.943ZM384.398 608.414l-6.613-8.86-8.264 9.138 7.432 11.651 7.445-11.929ZM369.009 633.3l-8.499-7.055-5.906 10.818 9.968 9.582 4.437-13.345ZM385.758 630.314l-8.804-6.666-5.407 11.082 10.385 9.124 3.826-13.54ZM401.245 626.69l-8.818-6.652-5.407 11.068 10.384 9.123 3.841-13.539ZM405.182 649.367l-2.08 7.29c-2.357.528-4.727 1.07-7.084 1.57l-5.061-4.444 5.407-11.11 8.818 6.694ZM387.02 652.839l-2.205 7.818c-2.204.472-4.381.916-6.586 1.389l-5.407-4.75 5.38-11.109 8.818 6.652ZM355.699 587.889l-7.75 11.721-7.14-11.818 5.185-5.43c2.302.514 4.575 1.014 6.863 1.486l2.842 4.041ZM371.019 587.889l-7.736 11.721-7.14-11.818 2.509-2.652c4.062.889 8.125 1.763 12.256 2.624l.111.125ZM384.344 590.57l-5.989 9.04-7.113-11.721c4.354.926 8.721 1.82 13.102 2.681Z" />
    <path stroke="#272028" stroke-miterlimit="10" d="M405.182 646.812s22.308-34.718 18.384-48.41" />
    <path stroke="#272028" stroke-miterlimit="10"
      d="M388.461 591.444s18.648 34.718 26.149 36.606M412.433 634.438s-30.988-31.94-27.993-43.049M452.71 602.512c4.922 9.207-2.981 31.94-6.794 42.119" />
    <path fill="#272028"
      d="m197.517 544.368-30.822 8.79 39.21 16.456 29.837-15.914-38.225-9.332ZM375.346 546.548v17.47s15.265-11.582 0-17.47ZM376.523 504.998v17.47s25.012-12.345 0-17.47ZM380.157 528.787a3.164 3.164 0 0 0 3.161-3.167 3.164 3.164 0 0 0-3.161-3.166 3.164 3.164 0 0 0-3.161 3.166 3.164 3.164 0 0 0 3.161 3.167ZM387.63 524.121a3.164 3.164 0 0 0 3.161-3.167 3.164 3.164 0 0 0-3.161-3.166 3.164 3.164 0 0 0-3.161 3.166 3.164 3.164 0 0 0 3.161 3.167ZM393.952 516.288a3.163 3.163 0 0 0 3.161-3.166 3.163 3.163 0 0 0-3.161-3.166 3.163 3.163 0 0 0-3.161 3.166 3.163 3.163 0 0 0 3.161 3.166Z" />
    <path fill="#272028"
      d="M390.79 508.456a3.163 3.163 0 0 0 3.161-3.166 3.163 3.163 0 0 0-3.161-3.166 3.163 3.163 0 0 0-3.161 3.166 3.163 3.163 0 0 0 3.161 3.166ZM383.317 505.498a3.164 3.164 0 0 0 3.162-3.166 3.164 3.164 0 0 0-3.162-3.166 3.164 3.164 0 0 0-3.161 3.166 3.164 3.164 0 0 0 3.161 3.166Z" />
    <path fill="#272028"
      d="M376.525 489.028s99.826 12.11 106.758 14.221c0 0-86.932 8.526-98.897 87.321l-14.822-3.111 2.025-18.678s31.889-12.859 3.799-27.093v-8.208s61.67-28.426 1.178-36.106l-.041-8.346ZM401.244 487.209l80.79 8.388-16.929-16.789-63.861 8.401Z" />
    <path fill="#272028"
      d="M390.957 591.93s22.766-89.376 90.273-75.642c0 0-20.894 21.164 0 45.119l-11.452 13.29s-47.362-51.299-71.473 17.678l-7.348-.445Z" />
    <path fill="#272028"
      d="M406.291 583.14s.749-14.956 18.62-23.024v7.249s-9.844 3.318-14.669 18.205l-3.951-2.43ZM431.054 558.644s6.087-3.139 14.212 1.638l-1.04 7.902-15.251-1.389 2.079-8.151ZM451.699 562.893s11.453 6.568 12.853 8.985v11.47s-7.071-9.97-15.251-13.414l2.398-7.041Z" />
    <path fill="#C59E97"
      d="M453.696 542.798c4.663 0 8.443-3.786 8.443-8.457 0-4.67-3.78-8.457-8.443-8.457-4.664 0-8.444 3.787-8.444 8.457 0 4.671 3.78 8.457 8.444 8.457Z" />
    <path fill="#272028"
      d="M451.767 594.916c0 3.055-2.163 5.805-5.546 7.596-8.318-1.388-16.637-2.999-25.053-4.638a6.843 6.843 0 0 1-.693-2.958c0-5.485 7.015-9.901 15.681-9.901 8.665 0 15.611 4.416 15.611 9.901Z" />
    <path fill="#272028"
      d="M407.691 594.916s22.309-46.382 61.088 1.708l-16.138 7.11-6.378-1.208s10.204-5.291 8.79-9.526c-1.414-4.236-25.358-29.579-41.317 3.485l-6.045-1.569Z" />
    <path stroke="#272028" stroke-miterlimit="10" stroke-width="2"
      d="m483.99 480.349 3.924 20.08 31.334-17.067-35.258-3.013ZM488.814 505.79v48.215l39.182-25.218-39.182-22.997ZM488.052 560.81l-6.822 38.272 39.21-21.538-32.388-16.734Z" />
    <path fill="#272028"
      d="m522.631 582.529-6.212 31.148c-5.781-.791-11.701-1.61-17.691-2.485l-9.941-10.068 33.844-18.595ZM500.738 556.422l30.35-23.914-1.47 44.772-28.88-20.858ZM502.139 507.512l24.471-23.344 2.412 39.119-26.883-15.775ZM651.697 541.035l-118.128-3.791-2.024-35.12 109.781 7.054 10.371 31.857Z" />
    <path stroke="#C59E97" stroke-miterlimit="10" d="m531.727 505.151 15.764 15.789-14.031 14.068" />
    <path stroke="#C59E97" stroke-miterlimit="10"
      d="m568.093 520.338-15.96-15.986-15.961 15.986 15.961 15.986 15.96-15.986Z" />
    <path stroke="#C59E97" stroke-miterlimit="10"
      d="m589.695 520.338-15.961-15.986-15.96 15.986 15.96 15.986 15.961-15.986Z" />
    <path stroke="#C59E97" stroke-miterlimit="10"
      d="M589.638 504.429 575.76 518.33l15.958 15.984 8.763-8.763 7.195-7.221-5.975-5.985-7.182-7.194" />
    <path stroke="#C59E97" stroke-miterlimit="10"
      d="m608.093 506.97-6.392 5.374-8 6.68 6.78 6.527 10.399 9.138 13.171-14.346-12.575-13.581" />
    <path stroke="#C59E97" stroke-miterlimit="10"
      d="m631.828 539.827-24.027-18.637 18.301-12.012 12.354 21.192-6.628 9.457Z" />
    <path stroke="#C59E97" stroke-miterlimit="10"
      d="m649.728 538.952-25.234-18.22 19.508-12.429 12.367 21.192-6.641 9.457Z" />
    <path fill="#272028"
      d="M534.443 544.84s110.225-8.124 118.973 15.817l-2.634 8.166s-36.769-27.774-115.077-12.749l-1.262-11.234Z" />
    <path fill="#272028"
      d="m525.07 606.428 54.128-49.798-42.079 2.916-12.049 46.882ZM534.928 616.205l130.883-22.664-73.913-32.787-56.97 55.451ZM530.713 462.088a33.631 33.631 0 0 1 4.021 3.291l2.066 4.305a182.751 182.751 0 0 1 3.896 8.749c1.234 2.957 2.37 5.957 3.327 9.082a43.202 43.202 0 0 1 1.206 4.846c-.157.91-.385 1.806-.679 2.68a6.14 6.14 0 0 1-1.387 2.375 12.362 12.362 0 0 0-1.996-4.347 37.513 37.513 0 0 0-1.081-4.332c-.888-2.917-2.011-5.833-3.203-8.707-1.193-2.875-2.44-5.736-3.827-8.555-.679-1.388-1.386-2.847-2.066-4.166a47.927 47.927 0 0 1-.277-5.221ZM561.424 498.013a44 44 0 0 1-2.704-4.291c-.18-1.514-.444-3.027-.679-4.541-.499-3.027-1.026-6.041-1.636-9.04-.61-3-1.262-5.972-2.094-8.846a40.346 40.346 0 0 0-1.386-4.166c.018-.76-.005-1.521-.07-2.278a3.572 3.572 0 0 0-.693-2.166 2.87 2.87 0 0 1 .693 0l.694.222c.417.21.816.457 1.192.736a16.097 16.097 0 0 1 2.01 1.861 40.287 40.287 0 0 1 1.581 4.61c.887 3.055 1.567 6.111 2.177 9.18.61 3.069 1.164 6.124 1.663 9.193l.721 4.61a33.112 33.112 0 0 1-1.469 4.916ZM579.393 497.416a50.145 50.145 0 0 1-2.94-4.277c-.263-1.542-.61-3.083-.943-4.611-.679-3.069-1.386-6.124-2.26-9.123a84.866 84.866 0 0 0-2.911-8.805 29.917 29.917 0 0 0-1.913-4.013 9.733 9.733 0 0 0-1.387-4.499 5.448 5.448 0 0 1 2.69.763 15.701 15.701 0 0 1 2.287 1.611 33.5 33.5 0 0 1 2.191 4.569 89.174 89.174 0 0 1 3.064 9.249c.86 3.097 1.622 6.221 2.316 9.346l.998 4.693a32.968 32.968 0 0 1-1.192 5.097ZM601.77 498.36c-1.317-1.722-2.44-3.471-3.577-5.207-.499-1.917-1.082-3.805-1.664-5.708-1.179-3.777-2.454-7.527-3.868-11.193a82.915 82.915 0 0 0-4.853-10.623 26.693 26.693 0 0 0-3.147-4.527c-.749-1.695-1.498-3.361-3.55-4.166a5.03 5.03 0 0 1 3.425-.209 12.55 12.55 0 0 1 3.203 1.514 30.341 30.341 0 0 1 3.688 5.277 87.597 87.597 0 0 1 5.116 11.11c1.386 3.791 2.773 7.624 3.951 11.47l1.747 5.972a45.038 45.038 0 0 1-.471 6.29Z" />
    <path fill="#000"
      d="M522.631 469.073s174.904-4.611 115.798 144.688l-3.882 6.068-73.122-1.222s50.218 33.676 77.032 11.499c0 0 71.944-50.243 50.593-97.514 0 0-49.082-186.002-187.424-188.488-138.342-2.485-15.764-.291-15.764-.291l-51.452-6.833 88.221 132.093Z" />
    <path fill="#C59E97"
      d="M260.254 313.164c2.621 4.888 17.095 25.413 72.332 16.664.174-.041.354-.041.527 0l19.161 6.236a1.162 1.162 0 0 0 1.079-.174 1.174 1.174 0 0 0 .46-.993c-.416-7.957.444-40.73 43.064-39.48a.996.996 0 0 0 .709-.274.996.996 0 0 0 .303-.698v-49.688a1.142 1.142 0 0 0-.887-1.111l-125.628-28.899s.832 88.877-10.829 97.001a1.096 1.096 0 0 0-.291 1.416Z" />
    <path fill="#BA9893" d="M271.568 219.594s1.484 69.893 126.322 69.518v-32.19l-126.322-37.328Z" />
    <path fill="#C59E97"
      d="M438.583 166.268s-8.402 117.067-97.053 104.555c-52.45-7.388-84.575-62.019-88.734-110.012a161.62 161.62 0 0 1-.444-22.136c1.096-25.858 8.056-51.007 19.952-70.018 37.365-59.714 93.503-36.745 93.503-36.745 16.804 1.778 29.962 6.221 40.208 12.498l8.873 8.79c4.631-3.11 17.345 12.055 18.953 15.582a71.005 71.005 0 0 1 3.675 8.068c14.447 37.301 1.067 89.418 1.067 89.418Z" />
    <path fill="#5A3837"
      d="M437.515 76.031c-6.682 11.11-35.895 17.22-39.264 17.817-.153 0-.278-.167-.25-.32l4.603-13.15c-9.414 12.678-40.929 27.051-41.247 27.218l-5.546 1.569c4.963-1.666 7.237-24.344 7.708-29.51a.216.216 0 0 0-.037-.143.223.223 0 0 0-.268-.08.22.22 0 0 0-.11.099c-9.442 17.691-34.662 36.383-38.336 39.008-.153.125-.375 0-.347-.222l3.438-19.248a1.859 1.859 0 0 0-3.05-1.736l-14.17 9.138a.814.814 0 0 1-.917.004.821.821 0 0 1-.344-.851l3.397-16.664a.217.217 0 0 0-.015-.142.21.21 0 0 0-.245-.109.21.21 0 0 0-.115.084c-16.748 24.691-55.68 46.73-60.089 49.16 1.095-25.858 8.055-51.02 19.951-70.032 37.365-59.714 93.504-36.73 93.504-36.73 16.804 1.763 29.961 6.207 40.207 12.428l8.874 8.79c4.63-3.124 17.344 12.04 18.953 15.581a71.09 71.09 0 0 1 3.715 8.041Z" />
    <path fill="#000"
      d="M257.675 93.153c-.263-5.04 6.045-7.04 7.959-11.831 4.048-10.165 8.527-19.442 13.656-22.941 8.527-5.916 14.517-7.93 19.702-15.706 1.525-2.278 2.967-5.055 6.42-7.236 4.325-2.777 7.556-1.888 13.67-3.624 6.447-1.833 6.475-4.722 11.647-5.638 4.228-.736 5.545.583 10.052.805 9.178.43 10.994-4.596 19.687-5.638 11.3-1.389 18.926 5.86 20.506 3.625 1.179-1.667-1.968-7.263-6.835-10.471-7.82-5.152-16.36-1.694-35.369 2.416-27.258 5.902-25.927 2.32-38.974 7.25-11.48 4.346-18.606 9.428-31.348 18.51-19.41 13.888-20.908 19.637-21.296 21.734-1.47 7.762 3.522 9.568 3.619 21.746 0 9.5-2.967 9.944-4.423 22.942-.319 2.777-.083 9.943.402 24.149.527 15.637-10.01 45.091-7.237 46.285 2.565 1.111 10.26-18.4 9.705-20.927-2.51-10.332 8.887-34.454 2.995-48.299-2.205-5.222 1.622-4.305 4.298-6.124 2.287-1.583 1.289-8.596 1.164-11.027ZM413.916 44.59c-6.391 8.486 16.874 38.884 22.309 43.161a19.905 19.905 0 0 1 4.159 4.542 12.946 12.946 0 0 1 2.302 4.971c.596 3.319-1.082 5.208-1.997 8.332-1.303 4.375.749 5 1.511 14.193.486 5.888.846 10.207-.305 15.386a22.062 22.062 0 0 0-.901 8.152c.264 2.514.887 3.208.887 5.319 0 3.541-4.547 17.831-5.476 19.872-3.078 6.805-1.095 33.065 1.054 33.023 3.397-.069 10.786-53.978 11.369-61.227 1.913-23.192 6.89-85.35-18.371-96.626-5.962-2.694-13.865-2.61-16.541.903ZM268.781 215.97c-3.48-2.681-11.092-.653-16.222 3.527-10.731 8.832-10.703 28.024-7.001 47.701 7.47-.113 14.941.193 22.377.917 4.007-9.04 8.749-46.049.846-52.145ZM254.848 311.151a23.887 23.887 0 0 1 14.17 3.013c7.875 4.763 8.624 12.748 18.981 19.622a18.451 18.451 0 0 0 6.932 3.028c3.738.616 7.573.199 11.092-1.209 2.412-.986 4.561-2.541 7.057-3.319a8.311 8.311 0 0 1 5.546 0c2.69 1.098 4.437 4.028 7.265 4.764 1.92.296 3.885.066 5.684-.667a43.655 43.655 0 0 1 32.804 2.93c1.387.722 3.342 1.389 4.493.334a3.982 3.982 0 0 0 .665-3.319 45.286 45.286 0 0 1 3.91-23.233 34.466 34.466 0 0 1 16.43-16.595 61.311 61.311 0 0 1 12.686-3.694 4.675 4.675 0 0 0 1.913-.736c3.009-2.361-3.466-10.568-4.353-13.248a26.675 26.675 0 0 1-.305-14.193c.79-4.263 1.788-9.721 5.421-10.859 2.773-.889 5.546 1.166 6.031 1.5 3.383 2.569 3.549 7.054 3.619 8.762.18 4.861-1.872 6.944-3.314 11.776-1.969 6.569-.832 11.665-.61 14.79.804 10.693-5.546 45.327-21.088 60.977-33.192 33.44-129.358 1.5-135.029-33.509a22.151 22.151 0 0 1 0-6.915Z" />
    <path fill="#272028" d="M264.303 564.073s166.279 50.507 207.652 42.911l-207.652-42.911Z" opacity=".8" />
  </g>
  <defs>
    <clipPath id="a">
      <path fill="#fff" d="M0 0h693v690H0z" />
    </clipPath>
  </defs>
</svg>