<svg xmlns="http://www.w3.org/2000/svg" version="1.1" xmlns:xlink="http://www.w3.org/1999/xlink"
  xmlns:svgjs="http://svgjs.dev/svgjs" viewBox="0 0 800 800">
  <defs>
    <linearGradient x1="50%" y1="0%" x2="50%" y2="100%" id="vvvortex-grad">
      <stop stop-color="#FF623F" stop-opacity="1" offset="0%"></stop>
      <stop stop-color="#DCDCDE" stop-opacity="1" offset="100%"></stop>
    </linearGradient>
  </defs>
  <g stroke="url(#vvvortex-grad)" fill="none" stroke-linecap="square">
    <circle r="261" cx="400" cy="400" stroke-width="14" stroke-dasharray="36 40" stroke-dashoffset="25"
      transform="rotate(176, 400, 400)" opacity="0.05"></circle>
    <circle r="246.5" cx="400" cy="400" stroke-width="14" stroke-dasharray="16 37" stroke-dashoffset="25"
      transform="rotate(271, 400, 400)" opacity="0.11"></circle>
    <circle r="232" cx="400" cy="400" stroke-width="13" stroke-dasharray="36 17" stroke-dashoffset="25"
      transform="rotate(262, 400, 400)" opacity="0.16"></circle>
    <circle r="217.5" cx="400" cy="400" stroke-width="13" stroke-dasharray="46 34" stroke-dashoffset="25"
      transform="rotate(147, 400, 400)" opacity="0.22"></circle>
    <circle r="203" cx="400" cy="400" stroke-width="13" stroke-dasharray="19 49" stroke-dashoffset="25"
      transform="rotate(87, 400, 400)" opacity="0.27"></circle>
    <circle r="188.5" cx="400" cy="400" stroke-width="12" stroke-dasharray="44 51" stroke-dashoffset="25"
      transform="rotate(27, 400, 400)" opacity="0.33"></circle>
    <circle r="174" cx="400" cy="400" stroke-width="12" stroke-dasharray="49 48" stroke-dashoffset="25"
      transform="rotate(245, 400, 400)" opacity="0.39"></circle>
    <circle r="159.5" cx="400" cy="400" stroke-width="12" stroke-dasharray="13 30" stroke-dashoffset="25"
      transform="rotate(90, 400, 400)" opacity="0.44"></circle>
    <circle r="145" cx="400" cy="400" stroke-width="11" stroke-dasharray="42 44" stroke-dashoffset="25"
      transform="rotate(328, 400, 400)" opacity="0.50"></circle>
    <circle r="130.5" cx="400" cy="400" stroke-width="11" stroke-dasharray="18 39" stroke-dashoffset="25"
      transform="rotate(78, 400, 400)" opacity="0.55"></circle>
    <circle r="116" cx="400" cy="400" stroke-width="10" stroke-dasharray="14 19" stroke-dashoffset="25"
      transform="rotate(316, 400, 400)" opacity="0.61"></circle>
    <circle r="101.5" cx="400" cy="400" stroke-width="10" stroke-dasharray="20 12" stroke-dashoffset="25"
      transform="rotate(257, 400, 400)" opacity="0.66"></circle>
    <circle r="87" cx="400" cy="400" stroke-width="10" stroke-dasharray="37 44" stroke-dashoffset="25"
      transform="rotate(348, 400, 400)" opacity="0.72"></circle>
    <circle r="72.5" cx="400" cy="400" stroke-width="9" stroke-dasharray="48 17" stroke-dashoffset="25"
      transform="rotate(28, 400, 400)" opacity="0.78"></circle>
    <circle r="58" cx="400" cy="400" stroke-width="9" stroke-dasharray="52 40" stroke-dashoffset="25"
      transform="rotate(94, 400, 400)" opacity="0.83"></circle>
    <circle r="43.5" cx="400" cy="400" stroke-width="9" stroke-dasharray="52 27" stroke-dashoffset="25"
      transform="rotate(164, 400, 400)" opacity="0.89"></circle>
    <circle r="29" cx="400" cy="400" stroke-width="8" stroke-dasharray="47 10" stroke-dashoffset="25"
      transform="rotate(118, 400, 400)" opacity="0.94"></circle>
    <circle r="14.5" cx="400" cy="400" stroke-width="8" stroke-dasharray="15 28" stroke-dashoffset="25"
      transform="rotate(232, 400, 400)" opacity="1.00"></circle>
  </g>
</svg>